# xmcd CD database file
#
# Track frame offsets:
#	150
#	12243
#	23761
#	37423
#	48360
#	63134
#	77796
#	89496
#	103887
#	115195
#	128863
#	142141
#
# Disc length: 2066 seconds
#
# Revision: 1
# Processed by: cddbd v1.5.1PL0 Copyright (c) Steve Scherf et al.
# Submitted via: CDex 1.51
#
DISCID=a608100c
DTITLE=Sarah Vaughan - Box Set (Vol 2)
DYEAR=1900
DGENRE=Jazz
TTITLE0=I´d Rather Have A Memory Than A Dream
TTITLE1=I´m Scared
TTITLE2=You Go To My Head
TTITLE3=I Cried For You
TTITLE4=Black Coffee
TTITLE5=Summertime
TTITLE6=Nice Work If You Can Get It
TTITLE7=It Might As Well Be Spring
TTITLE8=Perdido
TTITLE9=Time After Time
TTITLE10=Love Me Or Leave Me
TTITLE11=Don´t Worry Bout Me
EXTD=
EXTT0=
EXTT1=
EXTT2=
EXTT3=
EXTT4=
EXTT5=
EXTT6=
EXTT7=
EXTT8=
EXTT9=
EXTT10=
EXTT11=
PLAYORDER=
